<svg viewBox="0 0 900 770" xmlns="http://www.w3.org/2000/svg" font-family="system-ui, -apple-system, sans-serif">
  <defs>
    <pattern id="skipped" patternUnits="userSpaceOnUse" width="6" height="6" patternTransform="rotate(45)">
      <line x1="0" y1="0" x2="0" y2="6" stroke="#cbd5e1" stroke-width="2"/>
    </pattern>
  </defs>
  <style>
    .title { font-size: 18px; font-weight: 600; fill: #0f172a; }
    .label { font-size: 11px; font-weight: 600; fill: #475569; letter-spacing: 0.5px; }
    .sublabel { font-size: 10px; fill: #64748b; }
    .nodelabel { font-size: 12px; font-weight: 500; fill: #0f172a; }
    .epiclabel { font-size: 13px; font-weight: 600; fill: #0f172a; }
    .stagelabel { font-size: 9px; fill: #64748b; text-anchor: middle; font-weight: 600; }
    .panel { fill: #f8fafc; stroke: #e2e8f0; stroke-width: 1; rx: 6; }
    .node { fill: white; stroke: #cbd5e1; stroke-width: 1; rx: 4; }
    .row-collapsed { fill: #fafbfc; stroke: #e2e8f0; stroke-width: 1; rx: 3; }
    .cell-none { fill: #f1f5f9; stroke: #cbd5e1; }
    .cell-active { fill: #dbeafe; stroke: #3b82f6; }
    .cell-review { fill: #fef3c7; stroke: #d97706; }
    .cell-complete { fill: #dcfce7; stroke: #22c55e; }
    .cell-skipped { fill: url(#skipped); stroke: #cbd5e1; }
    .actor { fill: #3b82f6; stroke: white; stroke-width: 2; }
    .actor-bg { fill: white; stroke: #cbd5e1; stroke-width: 1; }
    .actor-empty { fill: white; stroke: #3b82f6; stroke-width: 2; }
    .pill { fill: #e2e8f0; rx: 7; }
    .pill-grad { fill: #dcfce7; rx: 7; }
    .pill-refining { fill: #fef3c7; rx: 7; }
    .pill-raw { fill: #f1f5f9; rx: 7; }
    .pill-text { font-size: 9px; font-weight: 500; fill: #334155; }
    .caret { fill: #64748b; }
  </style>

  <text x="20" y="26" class="title">Work Streams</text>
  <g transform="translate(440, 12)">
    <rect x="0" y="0" width="12" height="12" class="cell-none" rx="2"/>
    <text x="17" y="10" class="sublabel">none</text>
    <rect x="55" y="0" width="12" height="12" class="cell-active" rx="2"/>
    <text x="72" y="10" class="sublabel">active</text>
    <rect x="113" y="0" width="12" height="12" class="cell-review" rx="2"/>
    <text x="130" y="10" class="sublabel">in-review</text>
    <rect x="180" y="0" width="12" height="12" class="cell-complete" rx="2"/>
    <text x="197" y="10" class="sublabel">complete</text>
    <rect x="250" y="0" width="12" height="12" class="cell-skipped" rx="2"/>
    <text x="267" y="10" class="sublabel">skipped</text>
    <circle cx="320" cy="6" r="6" class="actor"/>
    <text x="330" y="10" class="sublabel">actor</text>
    <circle cx="378" cy="6" r="5" class="actor-empty"/>
    <text x="386" y="10" class="sublabel">backgrounded</text>
  </g>
  <line x1="20" y1="38" x2="880" y2="38" stroke="#e2e8f0"/>

  <text x="20" y="58" class="label">INTENT — PROPOSALS, BACKLOG, OPEN QUESTIONS</text>
  <g transform="translate(20, 66)">
    <rect x="0" y="0" width="206" height="58" class="node"/>
    <text x="10" y="18" class="nodelabel">madrona feedback collection</text>
    <rect x="10" y="30" width="74" height="14" class="pill"/>
    <text x="47" y="40" class="pill-text" text-anchor="middle">feature proposal</text>
    <rect x="90" y="30" width="98" height="14" class="pill-grad"/>
    <text x="139" y="40" class="pill-text" text-anchor="middle">graduated → epic</text>

    <rect x="218" y="0" width="206" height="58" class="node"/>
    <text x="228" y="18" class="nodelabel">demo-mode log diagnose</text>
    <rect x="228" y="30" width="68" height="14" class="pill"/>
    <text x="262" y="40" class="pill-text" text-anchor="middle">dev backlog</text>
    <rect x="302" y="30" width="98" height="14" class="pill-grad"/>
    <text x="351" y="40" class="pill-text" text-anchor="middle">graduated → task</text>

    <rect x="436" y="0" width="206" height="58" class="node"/>
    <text x="446" y="18" class="nodelabel">view-grant assertion</text>
    <rect x="446" y="30" width="68" height="14" class="pill"/>
    <text x="480" y="40" class="pill-text" text-anchor="middle">dev backlog</text>
    <rect x="520" y="30" width="62" height="14" class="pill-refining"/>
    <text x="551" y="40" class="pill-text" text-anchor="middle">refining</text>

    <rect x="654" y="0" width="206" height="58" class="node"/>
    <text x="664" y="18" class="nodelabel">newsletter unsubscribe scope</text>
    <rect x="664" y="30" width="78" height="14" class="pill"/>
    <text x="703" y="40" class="pill-text" text-anchor="middle">unresolved bug</text>
    <rect x="748" y="30" width="40" height="14" class="pill-raw"/>
    <text x="768" y="40" class="pill-text" text-anchor="middle">raw</text>
  </g>

  <text x="20" y="146" class="label">ACTIVE WORK — ROOTS WITH LIVE SESSIONS</text>

  <g transform="translate(20, 156)">
    <rect x="0" y="0" width="860" height="296" class="panel"/>
    <path d="M 14 16 l 6 -6 l 6 6 z" class="caret"/>
    <text x="30" y="19" class="epiclabel">madrona-feedback</text>
    <rect x="180" y="8" width="34" height="14" class="pill"/>
    <text x="197" y="18" class="pill-text" text-anchor="middle">epic</text>
    <text x="226" y="19" class="sublabel" fill="#3b82f6">In progress</text>
    <text x="846" y="19" class="sublabel" text-anchor="end">↑ from intent: madrona feedback collection</text>

    <rect x="14" y="32" width="832" height="26" class="row-collapsed"/>
    <path d="M 26 45 l 0 -6 l 6 3 z" class="caret"/>
    <text x="40" y="49" class="nodelabel">M1 form-and-storage-mvp</text>
    <text x="244" y="49" class="sublabel" fill="#22c55e">Landed</text>
    <text x="836" y="49" class="sublabel" text-anchor="end">3 tasks ✓</text>

    <rect x="14" y="62" width="832" height="172" class="node"/>
    <path d="M 24 76 l 6 -6 l 6 6 z" class="caret"/>
    <text x="40" y="79" class="nodelabel">M2 organizer-readable-surface</text>
    <text x="276" y="79" class="sublabel" fill="#3b82f6">In progress</text>

    <rect x="30" y="88" width="810" height="100" class="row-collapsed"/>
    <path d="M 42 102 l 6 -6 l 6 6 z" class="caret"/>
    <text x="58" y="105" class="nodelabel">T1 schema work</text>
    <text x="222" y="105" class="sublabel" fill="#3b82f6">In progress</text>

    <g transform="translate(58, 112)">
      <text x="0" y="10" class="sublabel">Phase 1.1 redemption table</text>
      <text x="220" y="10" class="sublabel" fill="#22c55e">Landed</text>
      <g transform="translate(640, -3)">
        <rect x="0" y="0" width="32" height="18" class="cell-complete"/>
        <text x="16" y="12" class="stagelabel">D</text>
        <rect x="36" y="0" width="32" height="18" class="cell-complete"/>
        <text x="52" y="12" class="stagelabel">P</text>
        <rect x="72" y="0" width="32" height="18" class="cell-complete"/>
        <text x="88" y="12" class="stagelabel">I</text>
        <rect x="108" y="0" width="32" height="18" class="cell-complete"/>
        <text x="124" y="12" class="stagelabel">V</text>
      </g>
    </g>
    <g transform="translate(58, 138)">
      <text x="0" y="10" class="sublabel">Phase 1.2 RLS policies</text>
      <text x="220" y="10" class="sublabel" fill="#22c55e">Landed</text>
      <g transform="translate(640, -3)">
        <rect x="0" y="0" width="32" height="18" class="cell-complete"/>
        <text x="16" y="12" class="stagelabel">D</text>
        <rect x="36" y="0" width="32" height="18" class="cell-complete"/>
        <text x="52" y="12" class="stagelabel">P</text>
        <rect x="72" y="0" width="32" height="18" class="cell-complete"/>
        <text x="88" y="12" class="stagelabel">I</text>
        <rect x="108" y="0" width="32" height="18" class="cell-complete"/>
        <text x="124" y="12" class="stagelabel">V</text>
      </g>
    </g>
    <g transform="translate(58, 164)">
      <text x="0" y="10" class="sublabel" font-weight="600" fill="#0f172a">Phase 1.3 feedback ingest RPC</text>
      <text x="220" y="10" class="sublabel" fill="#3b82f6">In progress</text>
      <g transform="translate(640, -3)">
        <rect x="0" y="0" width="32" height="18" class="cell-complete"/>
        <text x="16" y="12" class="stagelabel">D</text>
        <rect x="36" y="0" width="32" height="18" class="cell-complete"/>
        <text x="52" y="12" class="stagelabel">P</text>
        <rect x="72" y="0" width="32" height="18" class="cell-active"/>
        <text x="88" y="12" class="stagelabel">I</text>
        <rect x="108" y="0" width="32" height="18" class="cell-none"/>
        <text x="124" y="12" class="stagelabel">V</text>
        <circle cx="88" cy="9" r="9" class="actor-bg"/>
        <circle cx="88" cy="9" r="6" class="actor"/>
        <text x="88" y="12" class="stagelabel" fill="white">A</text>
      </g>
    </g>

    <rect x="30" y="196" width="810" height="32" class="row-collapsed"/>
    <path d="M 42 213 l 0 -6 l 6 3 z" class="caret"/>
    <text x="58" y="217" class="nodelabel">T2 feedback view</text>
    <text x="222" y="217" class="sublabel" fill="#a16207">In draft · drafting PR in review</text>
    <g transform="translate(698, 205)">
      <rect x="0" y="0" width="32" height="18" class="cell-review"/>
      <text x="16" y="12" class="stagelabel">D</text>
      <rect x="36" y="0" width="32" height="18" class="cell-none"/>
      <text x="52" y="12" class="stagelabel">P</text>
      <rect x="72" y="0" width="32" height="18" class="cell-none"/>
      <text x="88" y="12" class="stagelabel">I</text>
      <rect x="108" y="0" width="32" height="18" class="cell-none"/>
      <text x="124" y="12" class="stagelabel">V</text>
    </g>

    <rect x="14" y="238" width="832" height="26" class="row-collapsed" opacity="0.55"/>
    <path d="M 26 251 l 0 -6 l 6 3 z" class="caret"/>
    <text x="40" y="255" class="nodelabel" fill="#64748b">M3 attendee export</text>
    <text x="244" y="255" class="sublabel" fill="#64748b">Deferred — pending decision</text>

    <text x="14" y="284" class="sublabel" fill="#475569">1 live actor on T1 P1.3 implementation · 1 review pending on T2 drafting</text>
  </g>

  <g transform="translate(20, 462)">
    <rect x="0" y="0" width="860" height="106" class="panel"/>
    <path d="M 14 16 l 6 -6 l 6 6 z" class="caret"/>
    <text x="30" y="19" class="epiclabel">docs-canonical-corrections</text>
    <rect x="234" y="8" width="34" height="14" class="pill"/>
    <text x="251" y="18" class="pill-text" text-anchor="middle">task</text>
    <text x="280" y="19" class="sublabel" fill="#3b82f6">In progress</text>
    <text x="846" y="19" class="sublabel" text-anchor="end">standalone task root · no parent epic</text>

    <rect x="14" y="32" width="832" height="26" class="row-collapsed"/>
    <path d="M 26 45 l 0 -6 l 6 3 z" class="caret"/>
    <text x="40" y="49" class="nodelabel">Phase 1 routing rewrites audit</text>
    <text x="244" y="49" class="sublabel" fill="#22c55e">Landed</text>

    <g transform="translate(0, 62)">
      <rect x="14" y="0" width="832" height="32" class="row-collapsed"/>
      <path d="M 26 14 l 6 -6 l 6 6 z" class="caret"/>
      <text x="40" y="18" class="nodelabel" font-weight="600" fill="#0f172a">Phase 2 status-string fixups</text>
      <text x="244" y="18" class="sublabel" fill="#3b82f6">In progress</text>
      <g transform="translate(698, 6)">
        <rect x="0" y="0" width="32" height="18" class="cell-complete"/>
        <text x="16" y="12" class="stagelabel">D</text>
        <rect x="36" y="0" width="32" height="18" class="cell-complete"/>
        <text x="52" y="12" class="stagelabel">P</text>
        <rect x="72" y="0" width="32" height="18" class="cell-active"/>
        <text x="88" y="12" class="stagelabel">I</text>
        <rect x="108" y="0" width="32" height="18" class="cell-none"/>
        <text x="124" y="12" class="stagelabel">V</text>
        <circle cx="88" cy="9" r="9" class="actor-bg"/>
        <circle cx="88" cy="9" r="6" class="actor"/>
        <text x="88" y="12" class="stagelabel" fill="white">B</text>
      </g>
    </g>
  </g>

  <text x="20" y="592" class="label">IN FLIGHT — NO LIVE ACTORS</text>
  <g transform="translate(20, 600)">
    <rect x="0" y="0" width="860" height="28" class="row-collapsed"/>
    <path d="M 12 14 l 0 -6 l 6 3 z" class="caret"/>
    <text x="26" y="18" class="nodelabel">band-bio</text>
    <rect x="98" y="6" width="34" height="14" class="pill"/>
    <text x="115" y="16" class="pill-text" text-anchor="middle">epic</text>
    <text x="142" y="18" class="sublabel" fill="#a16207">In draft</text>
    <text x="846" y="18" class="sublabel" text-anchor="end">M1 in draft · 0 live actors</text>

    <rect x="0" y="34" width="860" height="28" class="row-collapsed"/>
    <path d="M 12 48 l 0 -6 l 6 3 z" class="caret"/>
    <text x="26" y="52" class="nodelabel">demo-mode log diagnose</text>
    <rect x="194" y="40" width="34" height="14" class="pill"/>
    <text x="211" y="50" class="pill-text" text-anchor="middle">task</text>
    <text x="238" y="52" class="sublabel" fill="#0f172a">Proposed</text>
    <text x="846" y="52" class="sublabel" text-anchor="end">ready for drafting</text>
  </g>

  <text x="20" y="688" class="label">LANDED &amp; ABANDONED</text>
  <g transform="translate(20, 696)">
    <rect x="0" y="0" width="860" height="22" class="row-collapsed" opacity="0.55"/>
    <text x="14" y="14" class="nodelabel" fill="#64748b">attendee-quiz-mvp</text>
    <rect x="170" y="4" width="34" height="14" class="pill"/>
    <text x="187" y="14" class="pill-text" text-anchor="middle">epic</text>
    <text x="216" y="14" class="sublabel" fill="#22c55e">Landed</text>

    <rect x="0" y="28" width="860" height="22" class="row-collapsed" opacity="0.55"/>
    <text x="14" y="42" class="nodelabel" fill="#64748b">terminology-migration</text>
    <rect x="170" y="32" width="34" height="14" class="pill"/>
    <text x="187" y="42" class="pill-text" text-anchor="middle">task</text>
    <text x="216" y="42" class="sublabel" fill="#22c55e">Landed</text>
  </g>
</svg>
